<?xml version="1.0" ?><svg height="24" id="svg8" version="1.1" viewBox="0 0 24 24" width="24" xmlns="http://www.w3.org/2000/svg" xmlns:cc="http://creativecommons.org/ns#" xmlns:dc="http://purl.org/dc/elements/1.1/" xmlns:rdf="http://www.w3.org/1999/02/22-rdf-syntax-ns#" xmlns:svg="http://www.w3.org/2000/svg"><defs id="defs2"/><g id="g1249" style="display:inline" transform="translate(0,-290.65039)"><path d="m 12,292.65039 c -3.99152,0 -7.22266,3.28481 -7.22266,7.31055 v 3.5039 C 3.79101,303.89957 3,304.70877 3,305.84766 c 0,1.52813 1.24804,2.80273 2.77734,2.80273 h 12.44532 c 1.5293,0 2.77734,-1.2746 2.77734,-2.80273 0,-1.13889 -0.79101,-1.94809 -1.77734,-2.38282 v -3.5039 c 0,-4.02574 -3.23114,-7.31055 -7.22266,-7.31055 z m 5.22266,7.31055 c 0.002,1.32809 10e-4,2.7284 -0.008,4.03125 -0.029,0.57121 0.4261,1.05034 0.93721,1.05056 0.5111,2.2e-4 0.84798,0.33497 0.84798,0.80491 0,0.46992 -0.33688,0.80273 -0.77735,0.80273 H 5.77714 c -0.44047,0 -0.77734,-0.33281 -0.77734,-0.80273 0,-0.46994 0.33687,-0.80469 0.84756,-0.80494 0.51069,-2.4e-4 0.96543,-0.47812 0.9376,-1.04858 -0.0206,-1.32309 -0.008,-2.69222 -0.008,-4.0332 0,-2.96754 2.31996,-5.31055 5.22265,-5.31055 2.9027,0 5.22266,2.34301 5.22266,5.31055 z" id="rect1179" style="color:#000000;font-style:normal;font-variant:normal;font-weight:normal;font-stretch:normal;font-size:medium;line-height:normal;font-family:sans-serif;font-variant-ligatures:normal;font-variant-position:normal;font-variant-caps:normal;font-variant-numeric:normal;font-variant-alternates:normal;font-variant-east-asian:normal;font-feature-settings:normal;font-variation-settings:normal;text-indent:0;text-align:start;text-decoration:none;text-decoration-line:none;text-decoration-style:solid;text-decoration-color:#000000;letter-spacing:normal;word-spacing:normal;text-transform:none;writing-mode:lr-tb;direction:ltr;text-orientation:mixed;dominant-baseline:auto;baseline-shift:baseline;text-anchor:start;white-space:normal;shape-padding:0;shape-margin:0;inline-size:0;clip-rule:nonzero;display:inline;overflow:visible;visibility:visible;opacity:1;isolation:auto;mix-blend-mode:normal;color-interpolation:sRGB;color-interpolation-filters:linearRGB;solid-color:#000000;solid-opacity:1;vector-effect:none;fill:#000000;fill-opacity:1;fill-rule:nonzero;stroke:none;stroke-linecap:round;stroke-linejoin:round;stroke-miterlimit:4;stroke-dasharray:none;stroke-dashoffset:0;stroke-opacity:1;color-rendering:auto;image-rendering:auto;shape-rendering:auto;text-rendering:auto;enable-background:accumulate;stop-color:#000000;stop-opacity:1"/><path d="m 10,310.65039 a 1,1 0 0 0 -1,1 1,1 0 0 0 1,1 h 4 a 1,1 0 0 0 1,-1 1,1 0 0 0 -1,-1 z" id="path1199" style="color:#000000;font-style:normal;font-variant:normal;font-weight:normal;font-stretch:normal;font-size:medium;line-height:normal;font-family:sans-serif;font-variant-ligatures:normal;font-variant-position:normal;font-variant-caps:normal;font-variant-numeric:normal;font-variant-alternates:normal;font-variant-east-asian:normal;font-feature-settings:normal;font-variation-settings:normal;text-indent:0;text-align:start;text-decoration:none;text-decoration-line:none;text-decoration-style:solid;text-decoration-color:#000000;letter-spacing:normal;word-spacing:normal;text-transform:none;writing-mode:lr-tb;direction:ltr;text-orientation:mixed;dominant-baseline:auto;baseline-shift:baseline;text-anchor:start;white-space:normal;shape-padding:0;shape-margin:0;inline-size:0;clip-rule:nonzero;display:inline;overflow:visible;visibility:visible;opacity:1;isolation:auto;mix-blend-mode:normal;color-interpolation:sRGB;color-interpolation-filters:linearRGB;solid-color:#000000;solid-opacity:1;vector-effect:none;fill:#000000;fill-opacity:1;fill-rule:nonzero;stroke:none;stroke-linecap:round;stroke-linejoin:miter;stroke-miterlimit:4;stroke-dasharray:none;stroke-dashoffset:0;stroke-opacity:1;color-rendering:auto;image-rendering:auto;shape-rendering:auto;text-rendering:auto;enable-background:accumulate;stop-color:#000000;stop-opacity:1"/></g></svg>